<svg width="40" height="40" viewBox="0 0 40 40" fill="none" xmlns="http://www.w3.org/2000/svg">
  <defs>
    <linearGradient id="dragonGradient" x1="0%" y1="0%" x2="100%" y2="100%">
      <stop offset="0%" style="stop-color:#00ff00;stop-opacity:1" />
      <stop offset="100%" style="stop-color:#00cc00;stop-opacity:1" />
    </linearGradient>
  </defs>
  
  <!-- Dragon body -->
  <path d="M8 20 C8 12, 12 8, 20 8 C28 8, 32 12, 32 20 C32 28, 28 32, 20 32 C12 32, 8 28, 8 20 Z" fill="url(#dragonGradient)" opacity="0.2"/>
  
  <!-- Dragon head -->
  <circle cx="20" cy="20" r="8" fill="url(#dragonGradient)" stroke="#00ff00" stroke-width="2"/>
  
  <!-- Dragon eye -->
  <circle cx="18" cy="18" r="2" fill="#0a0a0a"/>
  <circle cx="18.5" cy="17.5" r="0.5" fill="#00ff00"/>
  
  <!-- Dragon wing -->
  <path d="M28 16 Q35 12, 32 20 Q35 28, 28 24" fill="url(#dragonGradient)" opacity="0.6"/>
  
  <!-- Dragon tail -->
  <path d="M4 24 Q8 20, 12 22 Q16 20, 8 20" fill="url(#dragonGradient)" opacity="0.8" stroke="#00ff00" stroke-width="1"/>
  
  <!-- Tech elements -->
  <rect x="15" y="25" width="10" height="2" fill="#00ff00" opacity="0.8" rx="1"/>
  <rect x="17" y="28" width="6" height="1" fill="#00ff00" opacity="0.6" rx="0.5"/>
  <rect x="18" y="30" width="4" height="1" fill="#00ff00" opacity="0.4" rx="0.5"/>
</svg>
